<svg width="36" height="36" viewBox="0 0 36 36" fill="none" xmlns="http://www.w3.org/2000/svg">
<path d="M18 11.5312C19.125 11.5312 20.1938 11.8687 21.2062 12.4312C22.2188 12.9937 23.0062 13.7812 23.5688 14.7937C24.1312 15.8062 24.4688 16.8749 24.4688 17.9999C24.4688 19.1811 24.1312 20.2499 23.5688 21.2624C23.0062 22.2749 22.2188 23.0624 21.2062 23.6249C20.1938 24.1874 19.125 24.4687 18 24.4687C16.8188 24.4687 15.75 24.1874 14.7375 23.6249C13.725 23.0624 12.9375 22.2749 12.375 21.2624C11.8125 20.2499 11.5313 19.1811 11.5313 17.9999C11.5313 16.8749 11.8125 15.8062 12.375 14.7937C12.9375 13.7812 13.725 12.9937 14.7375 12.4312C15.75 11.8687 16.8188 11.5312 18 11.5312ZM18 22.2187C19.125 22.2187 20.1375 21.8249 20.9812 20.9811C21.7688 20.1937 22.2188 19.1811 22.2188 17.9999C22.2188 16.8749 21.7688 15.8624 20.9812 15.0187C20.1375 14.2312 19.125 13.7812 18 13.7812C16.8188 13.7812 15.8063 14.2312 15.0188 15.0187C14.175 15.8624 13.7813 16.8749 13.7813 17.9999C13.7813 19.1811 14.175 20.1937 15.0188 20.9811C15.8063 21.8249 16.8188 22.2187 18 22.2187ZM26.2688 11.2499C26.2688 10.8562 26.1 10.5187 25.8188 10.1812C25.4812 9.8999 25.1438 9.73115 24.75 9.73115C24.3 9.73115 23.9625 9.8999 23.6812 10.1812C23.3438 10.5187 23.2312 10.8562 23.2312 11.2499C23.2312 11.6999 23.3438 12.0374 23.6812 12.3187C23.9625 12.6562 24.3 12.7687 24.75 12.7687C25.1438 12.7687 25.4812 12.6562 25.7625 12.3187C26.0438 12.0374 26.2125 11.6999 26.2688 11.2499ZM30.5438 12.7687C30.5438 13.8374 30.6 15.5812 30.6 17.9999C30.6 20.4749 30.5438 22.2187 30.4875 23.2874C30.4312 24.3561 30.2625 25.2561 30.0375 26.0437C29.7 26.9999 29.1375 27.8437 28.4625 28.5187C27.7875 29.1937 26.9438 29.6999 26.0438 30.0374C25.2562 30.3187 24.3 30.4874 23.2312 30.5437C22.1625 30.5999 20.4188 30.5999 18 30.5999C15.525 30.5999 13.7813 30.5999 12.7125 30.5437C11.6438 30.4874 10.7438 30.3187 9.95625 29.9811C9 29.6999 8.15625 29.1937 7.48125 28.5187C6.80625 27.8437 6.3 26.9999 5.9625 26.0437C5.68125 25.2561 5.5125 24.3561 5.45625 23.2874C5.4 22.2187 5.4 20.4749 5.4 17.9999C5.4 15.5812 5.4 13.8374 5.45625 12.7687C5.5125 11.6999 5.68125 10.7437 5.9625 9.95615C6.3 9.05615 6.80625 8.2124 7.48125 7.5374C8.15625 6.8624 9 6.2999 9.95625 5.9624C10.7438 5.7374 11.6438 5.56865 12.7125 5.5124C13.7813 5.45615 15.525 5.3999 18 5.3999C20.4188 5.3999 22.1625 5.45615 23.2312 5.5124C24.3 5.56865 25.2562 5.7374 26.0438 5.9624C26.9438 6.2999 27.7875 6.8624 28.4625 7.5374C29.1375 8.2124 29.7 9.05615 30.0375 9.95615C30.2625 10.7437 30.4312 11.6999 30.5438 12.7687ZM27.8438 25.4249C28.0688 24.8061 28.1812 23.7937 28.2938 22.3874C28.2938 21.5999 28.35 20.4187 28.35 18.8999V17.0999C28.35 15.5812 28.2938 14.3999 28.2938 13.6124C28.1812 12.2062 28.0688 11.1937 27.8438 10.5749C27.3938 9.4499 26.55 8.60615 25.425 8.15615C24.8062 7.93115 23.7938 7.81865 22.3875 7.70615C21.5438 7.70615 20.3625 7.6499 18.9 7.6499H17.1C15.5813 7.6499 14.4 7.70615 13.6125 7.70615C12.2063 7.81865 11.1938 7.93115 10.575 8.15615C9.39375 8.60615 8.60625 9.4499 8.15625 10.5749C7.93125 11.1937 7.7625 12.2062 7.70625 13.6124C7.65 14.4562 7.65 15.6374 7.65 17.0999V18.8999C7.65 20.4187 7.65 21.5999 7.70625 22.3874C7.7625 23.7937 7.93125 24.8061 8.15625 25.4249C8.60625 26.6061 9.45 27.3937 10.575 27.8437C11.1938 28.0687 12.2063 28.2374 13.6125 28.2937C14.4 28.3499 15.5813 28.3499 17.1 28.3499H18.9C20.4188 28.3499 21.6 28.3499 22.3875 28.2937C23.7938 28.2374 24.8062 28.0687 25.425 27.8437C26.55 27.3937 27.3938 26.5499 27.8438 25.4249Z" fill="black"/>
</svg>
