<svg width="36" height="36" viewBox="0 0 36 36" fill="none" xmlns="http://www.w3.org/2000/svg">
<path d="M27.9914 13.95C28.9759 13.2361 29.8616 12.3793 30.6 11.3322C29.6156 11.7606 28.6313 12.0462 27.6469 12.1413C28.7296 11.475 29.5171 10.5707 29.911 9.38077C28.8774 9.95193 27.7945 10.3803 26.6134 10.5707C26.1211 10.0947 25.5305 9.71393 24.8906 9.42836C24.2509 9.14279 23.5616 9 22.8235 9C21.8884 9 21.0515 9.23798 20.264 9.66634C19.4765 10.1423 18.8366 10.7611 18.3938 11.5226C17.9016 12.2841 17.7047 13.1409 17.7047 13.9976C17.7047 14.3784 17.7047 14.7591 17.8031 15.1399C15.6867 15.0447 13.718 14.5687 11.8477 13.6168C9.97735 12.7125 8.45156 11.475 7.17189 9.90432C6.67969 10.7135 6.4336 11.5702 6.4336 12.4269C6.4336 13.2837 6.63046 14.0928 7.07344 14.8067C7.46719 15.5683 8.05781 16.1394 8.74689 16.6154C7.91016 16.6154 7.12266 16.3774 6.4336 15.949V16.0442C6.4336 17.2341 6.82735 18.2813 7.61485 19.1857C8.40235 20.1375 9.38671 20.7086 10.568 20.9466C10.0758 21.0418 9.63281 21.0893 9.18985 21.0893C8.89454 21.0893 8.55 21.0893 8.25469 21.0418C8.55 22.0414 9.14064 22.8505 10.0266 23.5168C10.9125 24.1832 11.8969 24.4688 13.0781 24.4688C11.1586 25.8966 8.99296 26.6107 6.63046 26.6107C6.13829 26.6107 5.74454 26.6107 5.4 26.563C7.7625 28.0861 10.4203 28.8 13.3242 28.8C16.3266 28.8 18.9844 28.0861 21.3469 26.563C23.4634 25.2302 25.1366 23.4693 26.318 21.1846C27.45 19.0904 28.0406 16.8534 28.0406 14.5687C28.0406 14.2832 27.9914 14.0928 27.9914 13.95Z" fill="black"/>
</svg>
